{"asset":{"version":"2.0","generator":"Unity 6000.0.38f1 glTFast 6.14.0"},"nodes":[{"name":"Cube","mesh":0,"translation":[-23.1804,40.2618332,171.483978],"scale":[0.05,0.05,0.05]}],"buffers":[{"uri":"my-model.bin","byteLength":1416}],"bufferViews":[{"buffer":0,"byteLength":72,"target":34963},{"buffer":0,"byteLength":1344,"byteOffset":72,"byteStride":56,"target":34962}],"accessors":[{"bufferView":1,"componentType":5126,"count":24,"type":"VEC3","max":[0.5,0.5,0.5],"min":[-0.5,-0.5,-0.5]},{"bufferView":1,"componentType":5126,"count":24,"type":"VEC3","byteOffset":12},{"bufferView":1,"componentType":5126,"count":24,"type":"VEC4","byteOffset":24},{"bufferView":1,"componentType":5126,"count":24,"type":"VEC2","byteOffset":40},{"bufferView":1,"componentType":5126,"count":24,"type":"VEC2","byteOffset":48},{"bufferView":0,"componentType":5123,"count":36,"type":"SCALAR"}],"materials":[{"name":"New Material 1","pbrMetallicRoughness":{"metallicFactor":0,"roughnessFactor":0.5}}],"meshes":[{"name":"Cube","primitives":[{"attributes":{"POSITION":0,"NORMAL":1,"TANGENT":2,"TEXCOORD_0":3,"TEXCOORD_1":4},"indices":5,"material":0}]}],"scene":0,"scenes":[{"name":"Cube","nodes":[0]}]}